# xmcd
#
# Track frame offsets:
# 150
# 19030
# 41730
# 72885
# 103377
#
# Disc length: 1698 seconds
#
# Revision: 0
# Processed by: cddbd v1.5PL3 Copyright (c) Steve Scherf et al.
# Submitted via: Audion 3.0.2 (http://www.panic.com/audion/)
#
DISCID=4006a005
DTITLE=Neville Brothers - Fearless
DYEAR=1900
DGENRE=
TTITLE0=Fearless
TTITLE1=Bird On A Wire
TTITLE2=Yellow Moon
TTITLE3=My Blood
TTITLE4=River Of Live
EXTD=
EXTT0=
EXTT1=
EXTT2=
EXTT3=
EXTT4=
PLAYORDER=
